#!OML:ASF H:\Pregnant\Project 1\Capture day 1\Session 1\femalepreg.ASF
:FULLY-SPECIFIED
:DEGREES
913
root 6.34952 15.3882 19.7709 -339.778 -71.9859 2.57841
lowerback -15.4326 -2.11107 -7.84569
upperback -6.96252 -2.0008 -0.0980642
thorax 1.45386 -0.985687 3.99104
lowerneck -18.6474 -5.61776 -4.12553
upperneck 28.508 -10.3273 9.08771
head 13.4743 -3.98141 2.42415
rclavicle -1.32192e-014 1.03368e-014
rhumerus -39.8057 -1.86178 -76.2272
rradius 39.3632
rwrist -4.05291
rhand -10.275 -13.3893
rfingers 7.12502
rthumb 15.7188 -42.7709
lclavicle -1.32192e-014 1.03368e-014
lhumerus -36.4596 -4.07159 76.3811
lradius 32.9424
lwrist 45.969
lhand -32.1512 -0.801279
lfingers 7.12502
lthumb -5.39473 29.1101
rfemur -41.1704 -0.269005 27.1896
rtibia 45.2674
rfoot -27.7124 -33.6502
rtoes 16.4336
lfemur -33.751 3.65254 -30.8692
ltibia 25.8813
lfoot -3.29914 20.5967
ltoes -39.2092
914
root 6.35379 15.3849 19.7809 -340.197 -72.682 2.92104
lowerback -15.5413 -2.06732 -7.56149
upperback -6.98664 -1.97899 -0.125639
thorax 1.47747 -0.983275 3.80314
lowerneck -18.6454 -5.4356 -3.94961
upperneck 28.6047 -10.0693 8.8921
head 13.4672 -3.87493 2.36581
rclavicle 7.71657e-014 2.42517e-014
rhumerus -39.7122 -2.00586 -76.169
rradius 39.0075
rwrist -3.99807
rhand -10.3448 -13.4729
rfingers 7.12502
rthumb 15.6516 -42.8598
lclavicle 7.71657e-014 2.42517e-014
lhumerus -36.4776 -3.33982 75.9077
lradius 33.1083
lwrist 46.0716
lhand -32.1971 -0.845142
lfingers 7.12502
lthumb -5.43903 29.0651
rfemur -41.134 0.210396 26.793
rtibia 45.3062
rfoot -26.6021 -33.7491
rtoes 13.5177
lfemur -33.6546 3.7468 -31.0181
ltibia 25.9751
lfoot -3.15802 21.0398
ltoes -39.2228
915
root 6.35849 15.3815 19.7913 -340.6 -73.3889 3.23436
lowerback -15.6286 -2.02642 -7.26375
upperback -7.00905 -1.96548 -0.128944
thorax 1.49325 -0.984495 3.63238
lowerneck -18.6563 -5.24393 -3.77864
upperneck 28.7048 -9.79009 8.68119
head 13.463 -3.76098 2.30568
rclavicle -3.23025e-015 4.37326e-015
rhumerus -39.608 -2.1075 -76.0952
rradius 38.6609
rwrist -3.99001
rhand -10.426 -13.5756
rfingers 7.12502
rthumb 15.5734 -42.9686
lclavicle -3.23025e-015 4.37326e-015
lhumerus -36.5167 -2.58058 75.469
lradius 33.2374
lwrist 46.1472
lhand -32.2393 -0.882463
lfingers 7.12502
lthumb -5.47982 29.0267
rfemur -41.1239 0.642281 26.4232
rtibia 45.3547
rfoot -25.7242 -33.6651
rtoes 11.2098
lfemur -33.5621 3.82161 -31.1397
ltibia 26.095
lfoot -3.0032 21.5139
ltoes -39.2494
916
root 6.36328 15.3782 19.8019 -340.993 -74.1107 3.52032
lowerback -15.6946 -1.98588 -6.95924
upperback -7.02635 -1.95544 -0.110243
thorax 1.50421 -0.986964 3.4809
lowerneck -18.6775 -5.04611 -3.614
upperneck 28.8049 -9.49494 8.45888
head 13.4605 -3.64179 2.24455
rclavicle -1.32254e-014 -6.36111e-015
rhumerus -39.4966 -2.18245 -76.0027
rradius 38.3281
rwrist -4.02212
rhand -10.5263 -13.7037
rfingers 7.12502
rthumb 15.4768 -43.1042
lclavicle -1.32254e-014 -6.36111e-015
lhumerus -36.5751 -1.81292 75.0687
lradius 33.3331
lwrist 46.207
lhand -32.2877 -0.909893
lfingers 7.12502
lthumb -5.52653 28.998
rfemur -41.1151 1.04927 26.0815
rtibia 45.4004
rfoot -25.0934 -33.4439
rtoes 9.5601
lfemur -33.4598 3.88559 -31.2368
ltibia 26.2287
lfoot -2.83631 22.0163
ltoes -39.2873
917
root 6.36778 15.3753 19.8122 -341.387 -74.853 3.78646
lowerback -15.7415 -1.94246 -6.65538
upperback -7.0351 -1.94278 -0.0746697
thorax 1.51445 -0.987719 3.34836
lowerneck -18.7042 -4.84587 -3.45467
upperneck 28.9003 -9.19119 8.23062
head 13.458 -3.52006 2.18308
rclavicle -2.23633e-014 -1.47101e-014
rhumerus -39.3821 -2.25514 -75.8893
rradius 38.0122
rwrist -4.07773
rhand -10.6524 -13.8553
rfingers 7.12502
rthumb 15.3553 -43.2652
lclavicle -2.23633e-014 -1.47101e-014
lhumerus -36.6487 -1.06054 74.7076
lradius 33.3993
lwrist 46.262
lhand -32.3503 -0.923209
lfingers 7.12502
lthumb -5.58695 28.9831
rfemur -41.0855 1.44996 25.7695
rtibia 45.4361
rfoot -24.66 -33.1403
rtoes 8.45096
lfemur -33.333 3.95571 -31.3161
ltibia 26.362
lfoot -2.69751 22.5461
ltoes -39.2634
918
root 6.37155 15.3731 19.8217 -341.798 -75.6229 4.04754
lowerback -15.7745 -1.89208 -6.35894
upperback -7.03175 -1.9202 -0.0302352
thorax 1.52957 -0.983274 3.23117
lowerneck -18.7277 -4.64739 -3.29834
upperneck 28.983 -8.88733 8.00319
head 13.4511 -3.39887 2.12207
rclavicle -3.62471e-015 1.19271e-015
rhumerus -39.2683 -2.35618 -75.7542
rradius 37.7146
rwrist -4.13277
rhand -10.8016 -14.0213
rfingers 7.12502
rthumb 15.2116 -43.4421
lclavicle -3.62471e-015 1.19271e-015
lhumerus -36.7305 -0.348842 74.3834
lradius 33.4388
lwrist 46.3195
lhand -32.4288 -0.923572
lfingers 7.12502
lthumb -5.66279 28.9808
rfemur -41.0188 1.85871 25.4864
rtibia 45.4569
rfoot -24.3265 -32.814
rtoes 7.63855
lfemur -33.1704 4.0482 -31.3843
ltibia 26.48
lfoot -2.58174 23.0919
ltoes -39.192
919
root 6.37426 15.3721 19.83 -342.242 -76.4277 4.32287
lowerback -15.7992 -1.83091 -6.0773
upperback -7.01633 -1.88103 0.0159838
thorax 1.55191 -0.970318 3.12705
lowerneck -18.7401 -4.45501 -3.14206
upperneck 29.0479 -8.59211 7.78123
head 13.437 -3.28149 2.06137
rclavicle 1.10232e-014 -4.37326e-015
rhumerus -39.162 -2.50845 -75.5971
rradius 37.4387
rwrist -4.17279
rhand -10.9725 -14.1952
rfingers 7.12502
rthumb 15.047 -43.6284
lclavicle 1.10232e-014 -4.37326e-015
lhumerus -36.8155 0.299357 74.0945
lradius 33.4543
lwrist 46.3848
lhand -32.5223 -0.912975
lfingers 7.12502
lthumb -5.75299 28.9889
rfemur -40.912 2.28792 25.2288
rtibia 45.4587
rfoot -24.0317 -32.5001
rtoes 6.97629
lfemur -32.9673 4.17687 -31.4479
ltibia 26.5685
lfoot -2.48541 23.6413
ltoes -39.0846
